<svg width="40" height="40" viewBox="0 0 40 40" fill="none" xmlns="http://www.w3.org/2000/svg">
<path d="M11.0256 18.2051C12.6144 15.2963 13.7909 13.8983 16.7948 12.4359" stroke="#FFFDFD" stroke-width="1.66667" stroke-linecap="round"/>
<path d="M4.24744 24.423C4.63541 22.4499 6.37465 20.9615 8.46152 20.9615H31.5384C33.6253 20.9615 35.3646 22.4499 35.7525 24.423H4.24744Z" stroke="#FFFDFD" stroke-width="1.66667"/>
<mask id="path-3-inside-1_230_186" fill="white">
<path d="M32.1794 21.4102C32.1794 19.6424 31.8561 17.8919 31.2279 16.2587C30.5997 14.6255 29.6789 13.1415 28.5182 11.8915C27.3575 10.6414 25.9795 9.64987 24.4629 8.97337C22.9464 8.29686 21.3209 7.94867 19.6794 7.94867C18.0379 7.94867 16.4124 8.29686 14.8958 8.97337C13.3793 9.64987 12.0013 10.6414 10.8405 11.8915C9.67981 13.1415 8.75907 14.6255 8.13089 16.2587C7.5027 17.8919 7.17938 19.6424 7.17938 21.4102L19.6794 21.4102H32.1794Z"/>
</mask>
<path d="M32.1794 21.4102C32.1794 19.6424 31.8561 17.8919 31.2279 16.2587C30.5997 14.6255 29.6789 13.1415 28.5182 11.8915C27.3575 10.6414 25.9795 9.64987 24.4629 8.97337C22.9464 8.29686 21.3209 7.94867 19.6794 7.94867C18.0379 7.94867 16.4124 8.29686 14.8958 8.97337C13.3793 9.64987 12.0013 10.6414 10.8405 11.8915C9.67981 13.1415 8.75907 14.6255 8.13089 16.2587C7.5027 17.8919 7.17938 19.6424 7.17938 21.4102L19.6794 21.4102H32.1794Z" stroke="#FFFDFD" stroke-width="3.33333" mask="url(#path-3-inside-1_230_186)"/>
<circle cx="19.9999" cy="7.94874" r="0.833333" fill="#FFFDFD" stroke="#FFFDFD" stroke-width="0.897436"/>
</svg>
